<svg width="640" height="640" viewBox="0 0 640 640" fill="none" xmlns="http://www.w3.org/2000/svg">
  <rect width="640" height="640" rx="64" fill="#16362F"/>
  <rect x="110" y="136" width="420" height="368" rx="36" fill="#214C44"/>
  <path d="M170 440H470" stroke="#F8F5EF" stroke-opacity="0.18" stroke-width="12" stroke-linecap="round"/>
  <path d="M218 214H422" stroke="#F0C56D" stroke-width="16" stroke-linecap="round"/>
  <path d="M204 258H434" stroke="#F8F5EF" stroke-opacity="0.28" stroke-width="10" stroke-linecap="round"/>
  <path d="M204 304H434" stroke="#F8F5EF" stroke-opacity="0.28" stroke-width="10" stroke-linecap="round"/>
  <path d="M204 350H434" stroke="#F8F5EF" stroke-opacity="0.28" stroke-width="10" stroke-linecap="round"/>
  <circle cx="236" cy="214" r="18" fill="#F8F5EF"/>
  <circle cx="320" cy="214" r="18" fill="#F8F5EF"/>
  <circle cx="404" cy="214" r="18" fill="#F8F5EF"/>
  <path d="M312 206C298 206 286 217 286 232C286 247 299 256 309 267C316 274 316 283 312 296" stroke="#F0C56D" stroke-width="16" stroke-linecap="round"/>
  <circle cx="312" cy="326" r="34" fill="#F8F5EF"/>
  <path d="M312 286V366" stroke="#214C44" stroke-width="16" stroke-linecap="round"/>
  <path d="M278 342H346" stroke="#214C44" stroke-width="16" stroke-linecap="round"/>
  <rect x="262" y="404" width="100" height="34" rx="16" fill="#F0C56D"/>
</svg>
