<svg width="220" height="220" viewBox="0 0 220 220" fill="none" xmlns="http://www.w3.org/2000/svg">
  <defs>
    <linearGradient id="ctBg" x1="28" y1="24" x2="194" y2="196" gradientUnits="userSpaceOnUse">
      <stop stop-color="#EEE0B8"/>
      <stop offset="0.46" stop-color="#C89A4B"/>
      <stop offset="1" stop-color="#1E4B43"/>
    </linearGradient>
    <linearGradient id="ctCore" x1="110" y1="64" x2="110" y2="158" gradientUnits="userSpaceOnUse">
      <stop stop-color="#FFF8E8"/>
      <stop offset="1" stop-color="#E8E0CC"/>
    </linearGradient>
  </defs>
  <circle cx="110" cy="110" r="102" fill="url(#ctBg)"/>
  <circle cx="110" cy="110" r="94" stroke="rgba(255,255,255,0.28)" stroke-width="2.5"/>
  <rect x="54" y="54" width="112" height="112" rx="30" fill="rgba(255,255,255,0.12)" stroke="rgba(255,255,255,0.26)" stroke-width="2"/>
  <path d="M82 72V148" stroke="rgba(255,255,255,0.18)" stroke-width="2"/>
  <path d="M110 72V148" stroke="rgba(255,255,255,0.18)" stroke-width="2"/>
  <path d="M138 72V148" stroke="rgba(255,255,255,0.18)" stroke-width="2"/>
  <path d="M72 82H148" stroke="rgba(255,255,255,0.18)" stroke-width="2"/>
  <path d="M72 110H148" stroke="rgba(255,255,255,0.18)" stroke-width="2"/>
  <path d="M72 138H148" stroke="rgba(255,255,255,0.18)" stroke-width="2"/>
  <path d="M88 72H132V84H126V96H122V126H134V138H86V126H98V96H94V84H88V72Z" fill="url(#ctCore)"/>
  <rect x="94" y="60" width="32" height="10" rx="4" fill="#FFF8E8"/>
  <circle cx="110" cy="154" r="10" fill="#FFF8E8"/>
  <path d="M74 164C86 172 98 176 110 176C122 176 134 172 146 164" stroke="#FFF8E8" stroke-width="7" stroke-linecap="round"/>
</svg>
