<svg width="160" height="160" viewBox="0 0 160 160" fill="none" xmlns="http://www.w3.org/2000/svg">
  <defs>
    <linearGradient id="dojoBg" x1="25" y1="22" x2="138" y2="142" gradientUnits="userSpaceOnUse">
      <stop stop-color="#153A30"/>
      <stop offset="1" stop-color="#2F6B57"/>
    </linearGradient>
    <linearGradient id="dojoGold" x1="80" y1="42" x2="80" y2="114" gradientUnits="userSpaceOnUse">
      <stop stop-color="#FFE7A2"/>
      <stop offset="1" stop-color="#C6942D"/>
    </linearGradient>
  </defs>
  <rect x="8" y="8" width="144" height="144" rx="36" fill="url(#dojoBg)"/>
  <rect x="16" y="16" width="128" height="128" rx="30" stroke="rgba(255,255,255,0.14)" stroke-width="2"/>
  <path d="M61 45H99V58H93V71C93 83 86 90 80 93C74 90 67 83 67 71V58H61V45Z" fill="url(#dojoGold)"/>
  <path d="M55 58C46 59 42 66 42 73C42 81 47 87 56 89" stroke="#F7F4EA" stroke-width="6" stroke-linecap="round"/>
  <path d="M105 58C114 59 118 66 118 73C118 81 113 87 104 89" stroke="#F7F4EA" stroke-width="6" stroke-linecap="round"/>
  <rect x="67" y="95" width="26" height="8" rx="4" fill="#F7F4EA"/>
  <rect x="60" y="105" width="40" height="10" rx="5" fill="#F7F4EA"/>
  <path d="M49 122H111" stroke="#C8D5CD" stroke-width="6" stroke-linecap="round"/>
</svg>
