<svg width="640" height="640" viewBox="0 0 640 640" fill="none" xmlns="http://www.w3.org/2000/svg">
  <rect width="640" height="640" rx="104" fill="#163731"/>
  <rect x="56" y="56" width="528" height="528" rx="84" fill="url(#bg)"/>
  <rect x="150" y="146" width="340" height="232" rx="28" fill="#10241F" stroke="#E1C272" stroke-width="8"/>
  <rect x="178" y="176" width="284" height="176" rx="18" fill="#224A43"/>
  <path d="M208 208H432" stroke="rgba(255,248,241,0.18)" stroke-width="2"/>
  <path d="M208 244H432" stroke="rgba(255,248,241,0.18)" stroke-width="2"/>
  <path d="M208 280H432" stroke="rgba(255,248,241,0.18)" stroke-width="2"/>
  <path d="M208 316H432" stroke="rgba(255,248,241,0.18)" stroke-width="2"/>
  <path d="M244 208V320" stroke="rgba(255,248,241,0.18)" stroke-width="2"/>
  <path d="M280 208V320" stroke="rgba(255,248,241,0.18)" stroke-width="2"/>
  <path d="M316 208V320" stroke="rgba(255,248,241,0.18)" stroke-width="2"/>
  <path d="M352 208V320" stroke="rgba(255,248,241,0.18)" stroke-width="2"/>
  <path d="M388 208V320" stroke="rgba(255,248,241,0.18)" stroke-width="2"/>
  <circle cx="246" cy="242" r="22" fill="#FFF6E9"/>
  <path d="M384 312L342 270" stroke="#E1C272" stroke-width="10" stroke-linecap="round"/>
  <path d="M314 272C314 244.386 336.386 222 364 222H394" stroke="#E1C272" stroke-width="12" stroke-linecap="round"/>
  <rect x="266" y="392" width="108" height="20" rx="10" fill="#D0A551"/>
  <rect x="228" y="416" width="184" height="26" rx="13" fill="#224A43"/>
  <rect x="198" y="448" width="244" height="26" rx="13" fill="#0F2420"/>
  <rect x="196" y="476" width="248" height="28" rx="14" fill="#FFF8F1"/>
  <path d="M320 388V500" stroke="#FFF8F1" stroke-width="8" stroke-dasharray="10 12" opacity="0.45"/>
  <defs>
    <linearGradient id="bg" x1="84" y1="92" x2="560" y2="552" gradientUnits="userSpaceOnUse">
      <stop stop-color="#254C45"/>
      <stop offset="1" stop-color="#132E29"/>
    </linearGradient>
  </defs>
</svg>
