<svg width="640" height="640" viewBox="0 0 640 640" fill="none" xmlns="http://www.w3.org/2000/svg">
  <rect width="640" height="640" rx="104" fill="#163731"/>
  <rect x="56" y="56" width="528" height="528" rx="84" fill="url(#bg)"/>
  <circle cx="320" cy="244" r="110" fill="rgba(225,194,114,0.16)"/>
  <circle cx="320" cy="244" r="86" stroke="#E1C272" stroke-width="8"/>
  <circle cx="320" cy="244" r="54" fill="#FFF7E7"/>
  <path d="M320 206L332 232H360L338 248L346 276L320 260L294 276L302 248L280 232H308L320 206Z" fill="#D0A551"/>
  <rect x="134" y="374" width="372" height="118" rx="30" fill="#10241F" stroke="#E1C272" stroke-width="8"/>
  <circle cx="210" cy="436" r="42" fill="#FFF8F1"/>
  <circle cx="320" cy="430" r="50" fill="#E1C272"/>
  <circle cx="430" cy="436" r="42" fill="#FFF8F1"/>
  <path d="M172 504C192 474 226 456 260 456H318V492C318 498 314 504 308 504H172Z" fill="#214942"/>
  <path d="M322 504V456H380C414 456 448 474 468 504H322Z" fill="#214942"/>
  <path d="M280 332H360" stroke="#FFF8F1" stroke-width="8" stroke-linecap="round" opacity="0.52"/>
  <path d="M252 346H388" stroke="#FFF8F1" stroke-width="4" stroke-linecap="round" opacity="0.34"/>
  <defs>
    <linearGradient id="bg" x1="84" y1="92" x2="560" y2="552" gradientUnits="userSpaceOnUse">
      <stop stop-color="#254C45"/>
      <stop offset="1" stop-color="#132E29"/>
    </linearGradient>
  </defs>
</svg>
